<?xml version="1.0" encoding="utf-8"?>
<!-- Generator: Adobe Illustrator 27.0.0, SVG Export Plug-In . SVG Version: 6.00 Build 0)  -->
<svg version="1.1" id="LOGO" xmlns="http://www.w3.org/2000/svg" xmlns:xlink="http://www.w3.org/1999/xlink" x="0px" y="0px"
	 viewBox="0 0 900 900" style="enable-background:new 0 0 900 900;" xml:space="preserve">
<style type="text/css">
	.st0{fill:#D89CAF;}
	.st1{fill:#C9BBC8;}
</style>
<g>
	<g>
		<g>
			<path class="st0" d="M775.26,423.21c-1.59-16.26-4.43-32.29-8.38-48.13c-6.23-25.02-15.45-48.91-27.57-71.66
				c-3.6-6.76-7.05-13.64-12.11-19.52c-3.69-4.29-8.22-6.7-13.98-6.75c-4.68-0.05-9.21,0.93-13.77,1.68
				c-9.07,1.5-18.14,2.96-27.38,1.5c-11.35-1.8-21.54-6.45-30.99-12.82c-7.74-5.22-14.83-11.12-19.5-19.46
				c-3.07-5.49-4.72-11.34-4.59-17.64c0.03-1.28,0.24-2.65,1.7-3.16c1.28-0.45,2.08,0.49,2.9,1.25c2.34,2.17,4.7,4.33,7.02,6.53
				c6.09,5.77,12.25,11.49,19.19,16.24c8.35,5.71,16.91,11.08,27.25,12.3c10.17,1.2,17.73-2.86,19.76-12.87
				c0.59-2.91,0.45-5.89,0.03-8.83c-2.43-16.82-14.08-27.45-29.98-30.86c-9.97-2.13-20.02-1.49-30.03-0.18
				c-6.26,0.82-11.87,3.09-16.51,7.53c-1.84,1.76-4.09,1.64-6.29,0.78c-7.15-2.8-14.22-2.42-21.27,0.37
				c-4.46,1.76-8.94,3.46-13.41,5.21c-4.82,1.89-9.77,2.34-14.82,1.22c-16.7-3.7-27.41-24.22-17.79-42.14
				c5.29-9.86,14.07-15.48,24.48-18.76c11.5-3.62,23.37-3.01,35.2-2.83c0.32,0,0.63,0.1,0.95,0.15c1.34,0.22,1.72,0.71,0.6,1.79
				c-1.55,1.5-3.1,3-4.57,4.58c-2.03,2.18-4.57,3.09-7.45,3.4c-8.73,0.93-17.17,2.96-24.96,7.15c-5.2,2.79-9.37,6.64-11.87,12.1
				c-3.05,6.66,1.16,13.39,8.5,13.39c7.3-0.01,13.2-3.41,18.4-8.16c5.18-4.73,9.1-10.49,12.91-16.32c2.69-4.11,6.37-5.85,11.28-4.9
				c3.22,0.62,6.47,1.04,9.69,1.65c11.25,2.11,22.38,4.57,32.86,9.43c14.33,6.65,25.51,17.08,35.7,28.86
				c5.44,6.29,11.95,11.31,19.88,14.21c6.16,2.26,11.96,0.93,15.69-3.63c2.14-2.61,3.72-5.55,4.99-8.7
				c2.87-7.11,3.09-14.52,2.45-21.96c-0.64-7.38-2.9-14.27-7.99-19.9c-5.11-5.65-8.89-12.08-11.41-19.26
				c-4.51-12.86-12.1-23.77-21.62-33.3c-7.9-7.9-17.13-14.09-26.94-19.43c-7.78-4.24-15.81-7.15-24.75-4.48
				c-2.97,0.89-5.39,0.38-7.96-1.12c-6.44-3.76-13.46-4.96-20.8-3.95c-7.63,1.05-15.2,1.75-22.87,0.14
				c-11.37-2.39-21.81-0.08-30.92,7.16c-9.14,7.28-18.64,14.03-28.44,20.38c-3.84,2.49-7.4,5.34-10.03,9.16
				c-1.44,2.1-3.34,2.74-5.82,2.23c-18.79-3.82-37.84-4.81-55.62-4.98c-7.48,0.2-13.63,0.17-19.78,0.47
				c-11.98,0.58-23.89,1.59-35.75,3.38c-38.18,5.77-74.17,18.05-107.97,36.62c-31.14,17.11-58.64,38.93-82.78,65.02
				c-12.79,13.82-24.33,28.58-34.6,44.36c-17.18,26.37-30.18,54.66-39.16,84.82c-7.84,26.33-12.04,53.28-13.25,80.68
				c-0.63,14.21-0.14,28.42,1.24,42.61c1.54,15.85,3.97,31.53,7.64,47.03c3.39,14.34,8.2,28.21,13.03,42.12
				c7.05,20.29,15.33,39.98,25.74,58.78c14.3,25.81,31.81,49.24,52.39,70.35c7.69,7.9,15.84,15.34,24.5,22.19
				c14.3,11.33,28.84,22.3,45.73,29.65c17.57,7.65,35.91,11.88,55.07,12.43c6.55,0.19,13.11,0.22,19.64-0.49
				c7.24-0.78,14.43-1.84,21.47-3.72c10.19-2.73,18.61-8.66,26.8-14.97c1.02-0.78,1.82-1.44,3.16-0.61
				c4.33,2.69,8.85,5.06,13.21,7.73c8.46,5.18,17.64,7.96,27.43,4.24c2.33-0.89,4.65-1.45,6.97-1.77c1.49-0.41,2.94-0.93,4.05-2.03
				c0.46-0.45,1.22,0.2,0.76,0.65c-0.46,0.45-0.96,0.81-1.48,1.11c3.94-0.14,7.87,0.38,11.84,1.26c20.79,4.64,41.79,5.63,62.89,3.18
				c24.31-2.82,47.32-9.84,68.63-22.18c32.04-18.55,60.31-41.64,84.64-69.52c14.97-17.15,28.05-35.65,39.15-55.56
				c13.78-24.71,24.19-50.75,31.16-78.18c6.93-27.25,9.58-55.03,10.36-83.04C777.33,444.05,776.28,433.63,775.26,423.21z
				 M621.69,219.6c2.46-1.95,5.15-3.46,8.23-4.28c6.69-1.78,13.5-2.35,20.93-2.37c5.92-0.24,12.2,0.87,18.37,2.57
				c11.59,3.2,21.29,14.8,22.51,26.68c0.11,1.11,0.33,2.22,0.38,3.33c0.46,10.11-6.8,16.6-16.83,15.2
				c-9.17-1.28-16.75-5.97-24.19-11c-8.63-5.84-16.3-12.81-23.86-19.94c-1.92-1.81-3.93-3.51-5.82-5.34
				C619.4,222.49,619.46,221.37,621.69,219.6z M596.14,176.42c-1.67,1.74-2.82,3.85-4.19,5.81c-4.1,5.84-8.61,11.3-14.4,15.55
				c-3,2.2-6.25,3.88-10.84,3.63c0.06,0-0.59,0.05-1.22-0.01c-4.17-0.37-6.13-2.75-5.64-6.92c0.35-2.91,1.82-5.26,3.92-7.21
				c5.44-5.06,11.9-8.33,19.05-10.08c4.09-1.01,8.09-2.51,12.35-2.82c0.81-0.06,1.84-0.3,2.22,0.41
				C597.95,175.78,596.63,175.91,596.14,176.42z M710.84,177.07c0.14,2.49,0.03,4.97-1.02,7.29c-1.26,2.78-3.46,3.46-6.08,1.91
				c-4.08-2.41-6.65-10.12-4.84-14.51c1.05-2.53,3.38-3.72,6.49-3.3c3.47,0.47,5.17,1.99,5.43,5.01
				C710.93,174.66,710.84,175.87,710.84,177.07z M633.74,106.83c2.3,3.55,3.08,7.48,2.78,11.74c0.32,3.26-0.23,6.43-1.9,9.37
				c-2.9,5.12-9.01,7.73-13.54,5.78c-5.12-2.21-7.76-8.61-5.76-14.36c2.46-7.07,8.07-11.06,14.42-14.19
				C631.49,104.3,632.79,105.36,633.74,106.83z M590.86,121.24c2.09,3.79,3.46,7.86,4.46,12.06c0.5,2.12,0.6,4.27,0.41,6.41
				c-0.39,4.25-3.71,6.44-7.82,5.25c-4.43-1.29-6.55-4.41-6.55-9.61c0.07-5.81,2.89-10.51,6.2-14.95
				C588.94,118.55,590.14,119.94,590.86,121.24z M542.56,121.7c0.56-3.54,2.28-4.5,5.81-3.71c10.6,2.39,18.15,11.68,18.14,22.64
				c0.23,3.55-0.92,6.68-4.65,8.35c-4.01,1.8-7.39,0.62-10.49-2.24C543.97,139.93,541,131.59,542.56,121.7z M512.61,146.23
				c0.44-2.02,1.14-3.99,1.82-5.95c0.69-2,2.02-2.72,4.13-1.95c8,2.93,15.21,7.06,20.76,13.68c2.17,2.59,3.98,5.44,3.72,8.98
				c-0.04,7.23-6.23,11.9-13.76,10.46C517.01,169.12,509.93,158.44,512.61,146.23z M412.02,741.15
				c-8.32-5.96-16.47-12.14-23.49-19.64c-9.08-9.69-16.35-20.57-19.87-33.48c-3.71-13.6-3.63-27.06,3.9-39.62
				c5.31-8.86,15.82-13.32,25.31-10.93c4.42,1.11,7.66,3.84,10.2,7.48c1.52,2.17,1.01,4.4-0.19,6.56c-3.44,6.21-3.23,12.7-1.44,19.3
				c0.54,1.98,1.4,3.64,3.83,3.55c2.59-0.1,3.22-2.01,3.6-4.06c0.85-4.57,1.36-9.16,1.07-13.29c0-1.33,0.04-2.13-0.01-2.93
				c-0.48-7.48,0.55-10.92,9.97-14.16c12.73-4.37,24.81-2.4,34.75,7.52c4.61,4.6,6.09,10.58,6.52,16.84c0.2,2.86,0.15,5.73-0.3,8.6
				c-0.65,4.1-0.58,4.01-4.4,2.78c-9.67-3.09-19.19-2.6-28,2.57c-12.11,7.1-16.57,19.15-12.89,32.7c1.87,6.9,5.58,12.64,10.06,18.04
				c2.16,2.61,2.05,2.75-0.59,4.92c-3.28,2.69-6.86,4.95-10.33,7.38C417.04,743.14,414.58,742.98,412.02,741.15z M411.21,653.6
				c0.28,4.05,0.84,8.08-0.22,12.06c-0.15,0.58-0.26,1.46-1.05,1.38c-0.82-0.08-0.65-0.96-0.7-1.56
				C408.9,661.38,410.1,657.5,411.21,653.6z M463.94,683.12c-4.88,15.64-12.44,29.72-23.85,41.61c-1.1,1.15-2.09,2.42-3.13,3.62
				c-0.91,1.04-1.83,1.23-2.76,0.03c-4.84-6.27-9.96-12.48-10.77-20.77c-1.38-14.03,5.61-27.41,21.01-30.16
				c2.12-0.38,4.24-0.83,6.43-0.65c4.01,0.14,7.94,0.68,11.58,2.59C464.07,680.24,464.49,681.34,463.94,683.12z M464.88,755.74
				c-4.38,1.49-8.77,2.97-11.42,3.03c-10.97-0.12-18.9-3.28-26.35-7.9c-2.24-1.39-4.48-2.78-6.73-4.15c-1.38-0.84-1.66-1.41,0-2.46
				c4.17-2.64,8.36-5.31,11.9-8.81c1.6-1.58,2.84-1.68,4.68-0.17c8.68,7.09,18.12,13.06,28.02,18.3c0.47,0.25,1.25,0.27,1.24,0.95
				C466.2,755.28,465.45,755.54,464.88,755.74z M461.71,748.69c-5.69-3.7-11.46-7.29-16.97-11.27c-1.37-0.99-2.64-2.05-3.83-3.24
				c-2.54-2.53-2.58-3.26,0.02-5.87c2.82-2.84,5.46-5.82,7.98-8.93c7.15-8.84,12.65-18.6,16.27-29.4c0.61-1.82,1.27-3.62,1.97-5.4
				c0.82-2.11,1.98-2.33,3.48-0.62c1.77,2.01,2.34,4.34,1.52,6.92c-0.87,2.74-1.9,5.43-2.68,8.19c-0.8,2.83-0.36,5.54,1.33,8
				c1.19,1.73,2.77,2.59,4.9,2.34c2.02-0.24,3.04-1.6,3.68-3.34c1.16-3.17,1.09-6.43,0.54-9.69c-0.25-1.49-0.66-2.96-0.97-4.45
				c-0.5-2.4-0.13-4.77,1.39-6.61c7.26-8.8,18.33-14.65,30.56-10.47c2.13,0.73,4.13,1.74,5.93,3.09c3.65,2.73,5.54,6.33,5.06,10.85
				c1.12,8.47-2.93,15.13-7.16,21.67c-9.86,15.22-22.46,27.76-37.37,38.03C472.2,752.03,467,752.13,461.71,748.69z M473.06,703.49
				c-0.01-3.75,0.88-7.32,2.32-10.81c1.83,4.33,1.68,8.66,0.33,13c-0.17,0.53-0.49,1.05-1.16,1.01c-0.65-0.04-0.94-0.58-1.09-1.11
				C473.27,704.9,473.06,704.19,473.06,703.49z M773.58,470.18c-1.04,27.1-5.57,53.68-13.43,79.66
				c-9.63,31.85-23.95,61.45-42.68,88.93c-9.38,13.76-19.79,26.68-31.12,38.89c-21.19,22.84-45.37,41.94-72,58.01
				c-21.05,12.7-43.88,20.24-68.16,23.64c-7.77,1.09-15.58,1.69-23.39,1.74c-14.01,0.09-27.91-1.34-41.61-4.42
				c-2.65-0.59-5.32-1.11-7.97-1.68c-0.21-0.05-0.4-0.22-0.48-0.26c20.22-12.68,37.41-28.17,48.76-49.42
				c2.56-4.8,4.86-9.72,4.77-15.4c-0.15-9.3-6.63-16.77-15.83-18.33c-12.01-2.03-22.29,1.1-30.81,9.88c-2.16,2.22-4,2.62-6.16,1.5
				c-3.75-1.94-4.96-4.02-4.45-7.19c1.73-10.92,0.74-21.24-6.94-29.97c-5-5.68-11.27-9.16-18.75-10.2
				c-10.88-1.5-20.76,1.22-29.61,7.67c-1.14,0.83-1.78,0.53-2.64-0.3c-2.13-2.07-4.54-3.8-7.13-5.24
				c-10.6-5.93-20.02-4.64-29.23,3.71c-9.86,8.93-12.6,20.3-11.86,33.02c0.92,15.93,7.24,29.66,16.95,42
				c5.66,7.19,12.26,13.46,19.5,19.05c3.92,3.02,7.88,6,11.82,9c2.11,1.6,2.08,2.03,0.08,3.79c-8.97,7.89-19.54,12.2-31.18,14.34
				c-9.77,1.8-19.62,2.94-29.53,2.79c-22.36-0.35-43.7-5.28-63.86-15.1c-15.14-7.38-28.4-17.51-41.36-28.08
				c-8.86-7.23-17.26-14.98-25.16-23.25c-18.65-19.51-34.48-41.12-47.76-64.61c-12.12-21.44-21.48-44.04-29.16-67.44
				c-5.47-16.66-10.65-33.34-13.83-50.6c-2.28-12.34-3.76-24.78-4.7-37.3c-0.75-9.97-1.08-19.95-0.83-29.93
				c0.53-21.13,2.94-42.05,7.45-62.71c6.11-27.97,15.82-54.63,29.03-80.01c11.45-21.99,25.22-42.42,41.33-61.28
				c8.01-9.37,16.48-18.29,25.48-26.69c15.34-14.32,31.88-27.12,49.72-38.22c22.15-13.79,45.56-24.9,70.34-33.08
				c21.01-6.94,42.52-11.7,64.52-14.11c16.45-1.81,32.97-2.51,49.53-1.96c10.14,0.34,20.22,1.48,30.3,2.54
				c5.87,0.62,11.76,1.17,17.64,1.71c2.94,0.27,3.11,0.58,2.01,3.22c-5.67,13.61-1.2,28.23,11.64,34.44
				c3.98,1.92,8.2,2.23,12.42,1.4c9.74-1.94,13.88-12.78,8.25-21.53c-3.87-6.02-9.58-9.98-15.69-13.41
				c-2.86-1.61-5.9-2.84-8.96-4.02c-1.55-0.6-1.96-1.2-0.58-2.71c3.88-4.26,7.62-8.61,12.75-11.47c2.37-1.32,5.02-2.09,7.21-3.77
				c0.49-0.37,1.09-0.86,1.74-0.42c0.68,0.46,0.32,1.18,0.17,1.76c-1.51,5.81-1.17,11.59,0.56,17.27c1.8,5.9,5.06,10.82,10.17,14.42
				c2.09,1.47,4.4,2.28,6.9,2.52c6.14,0.58,11.13-3.81,11.63-10.14c0.97-12.42-4.96-22.03-16.51-26.63c-2-0.8-4.04-1.53-6.11-2.1
				c-1.69-0.46-1.31-0.96-0.51-2.07c5.48-7.56,13.43-11.13,22-13.62c5.86-1.7,11.86-2.67,17.99-1.53c3.4,0.63,3.89,1.92,1.79,4.65
				c-1.37,1.79-2.25,3.65-1.52,5.99c1.39,4.47,0.31,8.52-2.23,12.28c-2.79,4.13-5.33,8.36-6.14,13.4
				c-0.98,6.07,1.45,11.18,6.67,13.85c7.26,3.72,14.17-0.52,14.37-8.66c0.14-5.85-2.41-10.84-4.58-15.98
				c-0.53-1.25-1.13-2.47-1.7-3.71c-1.37-3.02-1.19-5.85,0.86-8.57c1.49-1.98,2.07-4.26,1.86-6.77c-0.24-2.78,0.73-4.34,3.36-5.03
				c9.83-2.6,19.47-2.1,28.79,2.17c0.49,0.22,1.14,0.42,1.07,1.12c-0.06,0.59-0.71,0.52-1.12,0.73
				c-7.04,3.51-12.57,8.53-15.32,16.07c-3.29,9.03,1.37,17.4,10.71,18.94c5.86,0.96,10.22-2.17,13.48-6.62
				c4.48-6.11,4.55-12.96,2.22-19.89c-0.83-2.47-1.7-4.97-3.37-7.1c-1.06-1.35,0.4-1.38,1.1-1.57c6.5-1.77,12.87-1.34,18.94,1.58
				c22.3,10.71,39.26,26.87,50.14,49.24c1.87,3.84,2.53,8.08,4.32,11.93c0.68,1.45-0.02,1.65-1.32,1.31
				c-2.09-0.54-4.17-0.95-6.38-0.44c-4.64,1.08-6.96,3.52-7.14,8.3c-0.24,6.16,1.99,11.27,7.15,14.88c4.12,2.88,8.2,1.82,10.23-2.77
				c1.64-3.72,2.06-7.68,1.53-11.73c-0.12-0.91-0.68-2.17,0.25-2.66c1.03-0.54,1.65,0.76,2.16,1.45
				c10.35,14.09,13.64,29.22,6.45,45.77c-3.54,8.15-9.72,10.4-17.78,6.62c-8.09-3.79-14.26-9.88-19.89-16.62
				c-11.2-13.38-25.2-22.73-41.48-28.78c-11.15-4.14-22.71-6.55-34.49-7.99c-1.34-0.16-2.71-0.07-4.07-0.14
				c-0.61-0.03-1.39,0.17-1.73-0.53c-0.34-0.7,0.29-1.16,0.66-1.66c3.69-5,8.57-7.31,14.79-6.31c6.8,1.09,13.67,1.67,20.51,1.64
				c9.73-0.04,19.56-0.2,28.31-5.57c6.82-4.19,10.65-11.53,9.47-18.27c-1.49-8.52-10.54-14.66-19.64-13.23
				c-8.67,1.36-16.1,5.6-23.18,10.47c-7.39,5.08-14,11.13-20.6,17.18c-3,2.75-6.33,3.88-10.49,3.55c-13.78-1.1-27.51-1.2-40.49,4.67
				c-12.85,5.81-21.77,14.94-24.37,29.3c-3.17,17.54,9.62,34.32,27.37,36c5.23,0.5,10.13-0.61,14.97-2.43
				c5.6-2.1,10.88-5.17,16.9-6.01c4.62-0.65,9.25-0.79,13.65,1.27c2.04,0.95,3.46,2.31,3.18,4.8c-1.86,16.34,6,28.08,18,37.77
				c11.43,9.24,24.14,15.87,38.78,18.39c8.24,1.42,16.4,0.34,24.54-0.85c3.95-0.58,7.91-1.18,11.82-1.98
				c9.94-2.03,15.86,1.96,20.38,9.31c5.49,8.92,10.37,18.19,14.84,27.67c9.47,20.09,16.88,40.92,22.08,62.52
				c3.54,14.7,5.9,29.59,7.44,44.64C773.93,439.68,774.16,454.94,773.58,470.18z M613.06,160.3c11.81-9.63,22.18-20.94,36.68-26.58
				c4.98-1.94,10.02-3.27,15.38-1.38c4.43,1.56,7.82,4.13,8.72,8.96c1,5.35-0.54,10.05-4.72,13.56c-6.23,5.22-13.81,6.72-21.66,7.2
				c-9.11,0.55-18.17-0.43-27.23-1.13C617.92,160.76,615.49,161.7,613.06,160.3z"/>
		</g>
	</g>
	<g>
		<path class="st0" d="M149.12,638.77c-2.7-0.56-4.9,0.08-5.49,0.46c-0.56,0.37-0.52,1.09-0.27,1.46l0.27,0.41l0.46-0.17
			c1.54-0.55,6.89-1.82,11.16,4.73c4.21,6.45,2.47,13.76-4.31,18.19c-3.27,2.13-6.9,2.99-10.21,2.41c-3.36-0.58-6.2-2.52-8.21-5.61
			c-3.26-4.99-2.22-9.31-0.16-11.69l0.21-0.25l-0.08-0.32c-0.07-0.28-0.3-0.52-0.59-0.64c-0.31-0.12-0.64-0.08-0.94,0.12
			c-0.64,0.42-1.76,2.08-2.19,4.12c-0.67,3.19,0.06,6.45,2.18,9.69c2.31,3.53,5.71,5.84,9.59,6.49c0.76,0.13,1.55,0.19,2.33,0.19
			c3.11,0,6.27-0.99,9.15-2.87c3.7-2.41,6.14-5.64,7.07-9.32c0.96-3.82,0.19-7.79-2.23-11.5
			C153.92,640.2,150.47,639.06,149.12,638.77z"/>
		<path class="st0" d="M145.78,629.22l0.15-0.12c0.31-0.25,0.42-0.73,0.25-1.13c-0.16-0.37-0.58-0.73-1.29-0.63l-11.22,1.02
			l-6.14-11.74l7.28-8.61c0.56-0.73,0.25-1.31,0.14-1.48c-0.24-0.34-0.66-0.51-1.03-0.41l-0.18,0.05l-20.06,23.87
			c-0.35,0.41-0.39,0.87-0.13,1.38c0.23,0.43,0.57,0.66,1.03,0.66c0.05,0,0.1,0,0.15-0.01l30.87-2.83L145.78,629.22z M131.66,628.57
			l-15.42,1.44l9.99-11.83L131.66,628.57z"/>
		<path class="st0" d="M102.39,603.2l25.39-10.68c0.26-0.11,0.45-0.3,0.55-0.54c0.09-0.23,0.09-0.48-0.01-0.71l-0.05-0.13
			c-0.17-0.4-0.63-0.7-1.25-0.44l-25.39,10.68l-3.84-9.13c-0.25-0.59-0.74-0.8-1.31-0.57c-0.41,0.17-0.7,0.64-0.42,1.3l8.45,20.08
			c0.17,0.4,0.47,0.62,0.85,0.62c0.14,0,0.29-0.03,0.44-0.09c0.22-0.09,0.39-0.26,0.48-0.47c0.07-0.17,0.11-0.43-0.03-0.78
			L102.39,603.2z"/>
		<path class="st0" d="M121.41,576.88l0.16-0.09c0.35-0.2,0.53-0.65,0.43-1.07c-0.09-0.39-0.45-0.81-1.17-0.84l-11.23-0.86
			l-4.1-12.6l8.61-7.29c0.68-0.63,0.46-1.26,0.38-1.43c-0.18-0.39-0.58-0.63-0.94-0.57l-0.19,0.02l-23.75,20.21
			c-0.41,0.34-0.53,0.79-0.36,1.34c0.17,0.51,0.53,0.8,1.06,0.83l30.91,2.34L121.41,576.88z M92.15,572.75l11.81-10.01l3.63,11.15
			L92.15,572.75z"/>
		<path class="st0" d="M111.8,542.24l-0.03-0.14c-0.1-0.42-0.5-0.8-1.16-0.65l-11.72,2.67l-0.63-2.75l9.2-15.92
			c0.25-0.4,0.34-0.75,0.27-1.07c-0.1-0.45-0.51-0.72-0.84-0.78c-0.32-0.06-0.62,0.07-0.79,0.34l-8.45,14.75l-0.34-1.51
			c-0.77-3.36-2.11-5.82-4.01-7.31c-1.9-1.49-4.22-1.94-6.91-1.32c-2.71,0.62-4.61,2.04-5.65,4.21c-1.03,2.16-1.15,5.01-0.37,8.46
			l1.69,7.42c0.15,0.65,0.58,1.02,1.17,1.02c0.12,0,0.25-0.02,0.38-0.04l27.42-6.25C111.59,543.25,111.91,542.76,111.8,542.24z
			 M97.1,544.53l-13.35,3.04l-1.54-6.76c-1.31-5.74,0.29-9.3,4.63-10.29c4.35-0.99,7.41,1.53,8.69,7.12L97.1,544.53z"/>
		<path class="st0" d="M105.4,512.32c0.16-0.2,0.23-0.46,0.19-0.73l-0.02-0.13c-0.05-0.29-0.21-0.52-0.46-0.64
			c-0.19-0.1-0.41-0.12-0.65-0.08l-28.13,4.47c-0.25,0.04-0.45,0.13-0.59,0.28c-0.2,0.2-0.28,0.47-0.24,0.76l0.02,0.13
			c0.07,0.46,0.46,0.79,0.94,0.79c0.06,0,0.12,0,0.18-0.01l28.13-4.47C105.03,512.63,105.25,512.51,105.4,512.32z"/>
		<path class="st0" d="M102.52,498.09c0.67-0.06,0.94-0.55,0.9-0.97l-0.01-0.14c-0.05-0.55-0.48-0.9-1.06-0.85l-26.08,2.19
			l24.65-22.01c0.38-0.29,0.7-0.57,0.65-1.17l-0.01-0.13c-0.03-0.35-0.2-0.56-0.33-0.67c-0.14-0.12-0.39-0.26-0.78-0.22L72.1,476.5
			c-0.72,0.06-0.94,0.54-0.9,0.98l0.01,0.13c0.02,0.24,0.12,0.45,0.3,0.6c0.13,0.11,0.37,0.24,0.76,0.21l25.85-2.18l-24.44,21.79
			c-0.36,0.32-0.69,0.69-0.65,1.23l0.02,0.23c0.03,0.29,0.16,0.55,0.37,0.73c0.19,0.16,0.44,0.25,0.72,0.25c0.04,0,0.08,0,0.12,0
			l28.23-2.38L102.52,498.09z"/>
		<path class="st0" d="M100.03,464.97l0.17,0.07l0.19-0.04c0.39-0.08,0.71-0.45,0.75-0.88c0.04-0.39-0.17-0.91-0.84-1.17
			l-10.36-4.43l0.17-13.25l10.49-4.13c0.67-0.3,0.86-0.83,0.82-1.23c-0.04-0.42-0.34-0.77-0.71-0.85l-0.18-0.04l-28.98,11.5
			c-0.5,0.19-0.76,0.58-0.77,1.16c-0.01,0.54,0.25,0.93,0.74,1.13L100.03,464.97z M73.82,451.73l14.4-5.69l-0.15,11.73L73.82,451.73
			z"/>
		<path class="st0" d="M88.18,414.61c0.96,0.15,1.93,0.23,2.88,0.23c3.19,0,6.15-0.85,8.56-2.46c3.3-2.2,5.4-5.61,6.06-9.87
			c0.56-3.59-0.08-7.01-1.86-9.92l3.01-2.16c0.4-0.3,0.59-0.55,0.64-0.89c0.05-0.35-0.07-0.71-0.33-0.93
			c-0.22-0.19-0.49-0.25-0.74-0.16l-3.69,2.62c-2.39-2.89-5.97-4.84-10.1-5.48c-4.35-0.68-8.48,0.14-11.64,2.31
			c-3.17,2.17-5.26,5.63-5.9,9.74c-0.66,4.25,0.31,8.16,2.82,11.3C80.3,411.93,83.95,413.95,88.18,414.61z M92.94,398.2
			c-0.43,0.26-0.53,0.6-0.55,0.79c-0.02,0.24,0.05,0.47,0.18,0.63c0.11,0.18,0.29,0.31,0.5,0.36c0.3,0.08,0.63,0,0.93-0.22l8.3-6.02
			c1.49,2.45,2.02,5.37,1.53,8.47c-0.57,3.68-2.4,6.62-5.27,8.52c-2.77,1.82-6.34,2.51-10.07,1.93c-3.79-0.59-7.04-2.4-9.15-5.09
			c-2.1-2.68-2.95-6.11-2.4-9.65c0.57-3.67,2.41-6.6,5.31-8.49c2.12-1.38,4.71-2.11,7.5-2.11c0.85,0,1.72,0.07,2.58,0.2
			c3.65,0.57,6.79,2.23,8.87,4.69L92.94,398.2z"/>
		<path class="st0" d="M81.43,370.68l17.14,4.54c1.66,0.44,3.22,0.66,4.62,0.66c5.06,0,8.39-2.86,9.88-8.5
			c0.95-3.57,0.67-6.57-0.82-8.93c-1.48-2.33-4.15-4.02-7.95-5.03l-17.09-4.53c-0.37-0.1-0.63-0.01-0.78,0.08
			c-0.2,0.12-0.34,0.3-0.4,0.54l-0.03,0.13c-0.07,0.27-0.04,0.52,0.09,0.73c0.13,0.21,0.34,0.35,0.62,0.43l17.09,4.53
			c6.62,1.75,9.06,5.54,7.46,11.57c-1.61,6.06-5.61,8.15-12.22,6.4l-17.09-4.53c-0.37-0.1-0.63-0.01-0.78,0.08
			c-0.2,0.12-0.34,0.31-0.4,0.54l-0.03,0.13c-0.06,0.24-0.03,0.49,0.09,0.71C80.94,370.44,81.16,370.61,81.43,370.68z"/>
		<path class="st0" d="M91.72,335.26l26.95,9.24c0.12,0.04,0.23,0.06,0.35,0.06c0.15,0,0.29-0.03,0.42-0.09
			c0.22-0.11,0.39-0.3,0.47-0.53l0.05-0.13c0.14-0.41,0-0.94-0.64-1.16l-26.95-9.24c-0.36-0.12-0.63-0.06-0.78,0.02
			c-0.21,0.1-0.36,0.28-0.44,0.5l-0.04,0.13c-0.08,0.24-0.07,0.49,0.04,0.71C91.25,334.99,91.46,335.17,91.72,335.26z"/>
		<polygon class="st0" points="91.72,335.26 91.72,335.26 91.72,335.26 		"/>
		<path class="st0" d="M97.44,319.43l26.06,11.16c0.15,0.07,0.31,0.1,0.45,0.1c0.12,0,0.23-0.02,0.33-0.06
			c0.21-0.09,0.38-0.25,0.47-0.47l0.05-0.13c0.22-0.51,0-1.02-0.54-1.25l-24.05-10.3l32.09-7.86c0.47-0.07,0.88-0.18,1.12-0.73
			l0.05-0.13c0.23-0.54,0.01-1.07-0.56-1.31l-26.15-11.2c-0.67-0.28-1.09,0.04-1.26,0.43l-0.06,0.13c-0.17,0.4-0.07,0.94,0.55,1.21
			l23.85,10.21l-31.81,7.78c-0.47,0.11-0.93,0.29-1.15,0.79L96.83,318c-0.12,0.28-0.12,0.58-0.01,0.85
			C96.94,319.1,97.15,319.3,97.44,319.43z"/>
		<path class="st0" d="M112.07,286.3l0.08,0.05c0.21,0.12,0.45,0.14,0.67,0.08c0.17-0.05,0.41-0.18,0.59-0.51l4.75-8.69l24.17,13.22
			c0.16,0.09,0.33,0.13,0.5,0.13c0.34,0,0.64-0.18,0.81-0.49l0.06-0.12c0.12-0.21,0.14-0.44,0.08-0.66
			c-0.05-0.17-0.18-0.41-0.51-0.59L119.1,275.5l4.75-8.69c0.31-0.56,0.17-1.08-0.37-1.38c-0.39-0.21-0.94-0.15-1.28,0.48
			l-10.45,19.11c-0.18,0.33-0.16,0.61-0.11,0.78C111.71,286.01,111.86,286.19,112.07,286.3z"/>
		<path class="st0" d="M164.86,254.01L164.86,254.01c-0.43-0.29-0.99-0.13-1.32,0.36l-9.71,14.57l-10.6-7.07l6.72-10.07
			c0.15-0.22,0.21-0.47,0.17-0.71c-0.04-0.27-0.19-0.49-0.44-0.66c-0.36-0.24-0.91-0.24-1.29,0.32l-6.72,10.07l-9.97-6.65
			l9.34-14.01c0.15-0.22,0.22-0.43,0.22-0.64c0-0.31-0.15-0.56-0.47-0.77c-0.2-0.13-0.43-0.18-0.65-0.13
			c-0.26,0.05-0.48,0.22-0.67,0.5l-9.71,14.56c-0.45,0.68-0.32,1.35,0.36,1.8l23.1,15.41c0.26,0.17,0.52,0.26,0.78,0.26
			c0.28,0,0.68-0.11,1.02-0.62l10.09-15.12C165.45,254.91,165.35,254.34,164.86,254.01z"/>
		<path class="st0" d="M181.51,232.6c-0.19-0.15-0.41-0.21-0.64-0.19c-0.18,0.02-0.44,0.11-0.67,0.41l-8.78,11.08l-21.59-17.11
			c-0.3-0.24-0.57-0.26-0.75-0.24c-0.23,0.03-0.43,0.14-0.58,0.33l-0.09,0.11c-0.33,0.42-0.25,1,0.19,1.35l22.05,17.47
			c0.28,0.22,0.56,0.33,0.84,0.33c0.25,0,0.63-0.09,0.98-0.54l9.2-11.6c0.24-0.3,0.26-0.57,0.24-0.75
			C181.88,233,181.75,232.8,181.51,232.6z"/>
		<path class="st0" d="M204.31,207.95l-29.1-11.17c-0.5-0.2-0.95-0.09-1.35,0.33c-0.37,0.39-0.45,0.85-0.23,1.33l12.79,28.35
			l0.03,0.07l0.16,0.1c0.13,0.08,0.29,0.13,0.46,0.13c0.25,0,0.5-0.1,0.68-0.26c0.29-0.26,0.5-0.78,0.18-1.43l-4.62-10.27l9.09-9.63
			l10.52,4.07c0.88,0.29,1.32-0.2,1.44-0.35c0.25-0.34,0.27-0.79,0.05-1.1L204.31,207.95z M190.51,204.77l-8.05,8.53l-6.39-14.1
			L190.51,204.77z"/>
		<path class="st0" d="M209.88,163.67l-5.37,4.31c-0.32,0.26-0.5,0.54-0.53,0.87c-0.04,0.32,0.07,0.64,0.33,0.96l17.38,21.66
			c0.36,0.44,0.73,0.54,0.98,0.54c0.28,0,0.57-0.11,0.85-0.34l5.2-4.17c3.93-3.15,6.31-6.89,6.89-10.81
			c0.58-3.9-0.64-7.86-3.52-11.45C226.25,157.97,217.74,157.37,209.88,163.67z M230.55,166.48c2.54,3.17,3.63,6.63,3.14,10
			c-0.5,3.43-2.63,6.73-6.15,9.56l-4.67,3.75l-16.65-20.76l4.85-3.89C218.08,159.51,225.36,160.01,230.55,166.48z"/>
		<path class="st0" d="M266.2,158.68c-0.26-0.05-0.55,0.01-0.81,0.19l-14.62,9.63l-7.01-10.64l10.11-6.66
			c0.22-0.15,0.37-0.35,0.43-0.59c0.07-0.26,0.02-0.52-0.15-0.78c-0.13-0.2-0.32-0.33-0.55-0.38c-0.17-0.03-0.45-0.03-0.76,0.18
			l-10.11,6.66l-6.59-10l14.06-9.26c0.54-0.35,0.66-0.87,0.32-1.39c-0.24-0.37-0.76-0.57-1.35-0.18l-14.62,9.63
			c-0.35,0.23-0.55,0.49-0.61,0.81c-0.07,0.32,0.01,0.64,0.24,0.99l15.27,23.18c0.22,0.33,0.48,0.53,0.79,0.6
			c0.08,0.02,0.16,0.03,0.24,0.03c0.25,0,0.5-0.09,0.77-0.26l15.18-10c0.26-0.17,0.44-0.41,0.49-0.67c0.05-0.24-0.01-0.46-0.17-0.72
			C266.62,158.86,266.42,158.72,266.2,158.68z"/>
		<path class="st0" d="M309.08,137l-23.22-20.8c-0.39-0.36-0.86-0.42-1.38-0.17c-0.48,0.23-0.72,0.64-0.68,1.16l1.86,31.05l0,0.08
			l0.11,0.15c0.17,0.22,0.45,0.35,0.75,0.35c0.13,0,0.25-0.02,0.37-0.07c0.37-0.14,0.74-0.55,0.67-1.27l-0.66-11.25l11.93-5.76
			l8.38,7.55c0.71,0.58,1.3,0.29,1.47,0.18c0.35-0.23,0.53-0.64,0.44-1.01L309.08,137z M297.32,129.12l-10.56,5.1l-0.95-15.45
			L297.32,129.12z"/>
		<path class="st0" d="M333,126.92L333,126.92c-0.16-0.07-0.43-0.13-0.78,0.01l-13.21,5.04l-9.83-25.74
			c-0.14-0.36-0.36-0.52-0.52-0.59c-0.21-0.09-0.45-0.1-0.67-0.01l-0.12,0.05c-0.23,0.09-0.42,0.26-0.52,0.48
			c-0.11,0.24-0.11,0.51-0.01,0.77l10.04,26.28c0.15,0.39,0.36,0.64,0.66,0.77c0.14,0.06,0.29,0.09,0.45,0.09
			c0.18,0,0.36-0.04,0.57-0.12l13.83-5.28c0.56-0.21,0.78-0.71,0.57-1.27C333.37,127.18,333.21,127.01,333,126.92z"/>
		<path class="st0" d="M360.61,89.83c-0.12-0.45-0.49-0.75-0.92-0.79l-0.24-0.86l-0.25,0.93l-0.08,0.02
			c-0.71,0.2-0.85,0.75-0.92,1.04l-5.6,20.27l-15.17-14.51c-0.22-0.22-0.63-0.62-1.33-0.43L336,95.53l-0.7-0.66l0.24,0.86
			c-0.12,0.08-0.21,0.18-0.29,0.3c-0.17,0.26-0.22,0.56-0.13,0.86l7.57,27.36c0.1,0.37,0.31,0.55,0.46,0.63
			c0.13,0.07,0.27,0.11,0.42,0.11c0.08,0,0.17-0.01,0.25-0.03l0.17-0.05c0.28-0.08,0.49-0.27,0.59-0.53
			c0.07-0.2,0.08-0.42,0.01-0.66l-6.88-24.84l14.21,13.53c0.33,0.43,0.83,0.6,1.34,0.46c0.51-0.14,0.9-0.57,0.93-0.99l5.25-19
			l6.88,24.84c0.1,0.37,0.31,0.55,0.46,0.64c0.2,0.11,0.43,0.14,0.67,0.08l0.12-0.04c0.23-0.06,0.42-0.21,0.53-0.41
			c0.09-0.15,0.17-0.41,0.07-0.78L360.61,89.83z"/>
		<path class="st0" d="M399.72,110.56L399.72,110.56c-0.18-0.07-0.4-0.09-0.63-0.05l-17.25,2.97l-2.16-12.56l11.93-2.06
			c0.56-0.1,0.9-0.58,0.8-1.14c-0.04-0.23-0.17-0.44-0.36-0.57c-0.15-0.1-0.39-0.21-0.77-0.15l-11.93,2.06l-2.03-11.8l16.59-2.86
			c0.33-0.06,0.57-0.19,0.72-0.41c0.14-0.2,0.18-0.43,0.12-0.74c-0.04-0.24-0.16-0.43-0.35-0.56c-0.21-0.15-0.49-0.2-0.82-0.14
			l-17.25,2.97c-0.42,0.07-0.71,0.24-0.9,0.52c-0.18,0.26-0.23,0.58-0.16,0.98l4.71,27.36c0.07,0.4,0.22,0.68,0.48,0.87
			c0.2,0.15,0.44,0.22,0.71,0.22c0.1,0,0.2-0.01,0.31-0.03l17.91-3.09c0.31-0.05,0.57-0.2,0.72-0.42c0.14-0.2,0.18-0.43,0.13-0.73
			C400.2,110.91,400,110.67,399.72,110.56z"/>
		<path class="st0" d="M409.78,81.59c-0.07-0.67-0.57-0.93-0.99-0.89l-0.14,0.01c-0.53,0.06-0.89,0.52-0.83,1.08l2.99,28.33
			c0.05,0.52,0.44,0.89,0.94,0.89c0.04,0,0.07,0,0.1-0.01l0.13-0.01c0.24-0.02,0.45-0.13,0.59-0.31c0.11-0.14,0.24-0.38,0.2-0.76
			L409.78,81.59z"/>
		<path class="st0" d="M432.69,78.98l-6.88,0.23c-0.42,0.01-0.74,0.14-0.96,0.4c-0.21,0.24-0.31,0.55-0.29,0.95l0.93,27.75
			c0.03,0.79,0.5,1.26,1.28,1.26l6.73-0.22c10.21-0.34,16.35-6.39,16.04-15.8C449.2,84.23,442.76,78.65,432.69,78.98z M443.48,84.08
			c2.53,2.22,3.94,5.51,4.07,9.53c0.14,4.11-1.08,7.55-3.52,9.95c-2.45,2.4-6.12,3.75-10.61,3.9l-5.99,0.2l-0.89-26.59l6.21-0.21
			C437.18,80.7,440.89,81.82,443.48,84.08z"/>
		<path class="st0" d="M472.75,80.07c-0.17-0.51-0.55-0.79-1.12-0.82c-0.56-0.03-0.93,0.2-1.16,0.68L457,107.84l-0.08,0.17
			l0.03,0.19c0.05,0.4,0.41,0.73,0.84,0.79c0.4,0.06,0.92-0.12,1.21-0.78l4.91-10.14l13.22,0.79l3.63,10.67
			c0.31,0.78,0.89,0.88,1.19,0.88c0,0,0.01,0,0.01,0c0.42-0.03,0.78-0.3,0.88-0.67l0.05-0.18L472.75,80.07z M476.45,96.94
			l-11.71-0.7l6.71-13.95L476.45,96.94z"/>
	</g>
	<g>
		<path class="st0" d="M583.83,778.03c-2.51-1.03-5.61-0.98-9.22,0.15l-7.04,2.2c-0.73,0.23-1.08,0.66-1.25,0.98
			c-0.17,0.32-0.32,0.86-0.09,1.59l8.4,26.84c0.14,0.46,0.44,0.83,0.85,1.04c0.24,0.12,0.5,0.19,0.77,0.19
			c0.17,0,0.34-0.03,0.5-0.08l0.14-0.04c0.42-0.13,0.75-0.41,0.95-0.79c0.21-0.4,0.24-0.88,0.09-1.36l-3.03-9.68l5.77-1.81
			c3.61-1.13,6.17-2.85,7.62-5.13c1.47-2.3,1.74-4.99,0.79-8C588.15,781.14,586.38,779.08,583.83,778.03z M573.89,795.86
			l-3.96-12.67l5.69-1.78c5.43-1.69,8.85-0.43,10.16,3.77c1.32,4.2-0.74,7.19-6.11,8.87L573.89,795.86z"/>
		<path class="st0" d="M608.56,780.63c-5.43,0.93-7.9,0.86-9.1-2c-0.64-1.52-0.59-3.05,0.13-4.42c0.73-1.38,2.14-2.56,3.96-3.33
			c4.21-1.76,7.03-0.61,8.27,1.06l0.64,0.86l0.99-0.41c0.44-0.18,0.81-0.57,1-1.03c0.19-0.46,0.19-0.96,0-1.41
			c-0.4-0.96-1.75-2.08-3.22-2.68c-1.8-0.74-4.82-1.25-8.99,0.5c-2.59,1.08-4.62,2.84-5.73,4.96c-1.2,2.29-1.29,4.79-0.26,7.24
			c2.42,5.77,8.13,4.83,12.71,4.08c5.47-0.9,8.21-0.97,9.59,2.33c0.63,1.51,0.57,3.05-0.19,4.44c-0.8,1.49-2.32,2.73-4.37,3.59
			c-5.52,2.31-8.53,0.39-9.44-1.12l-0.62-1.01l-1.09,0.46c-0.82,0.35-1.41,1.36-0.95,2.43c0.31,0.74,1.4,2.22,3.46,3.02
			c1.17,0.48,2.45,0.72,3.81,0.72c1.88,0,3.95-0.47,6.13-1.38c5.85-2.45,8.51-7.59,6.45-12.49
			C619.32,779.21,614.12,779.63,608.56,780.63z"/>
		<path class="st0" d="M624.92,759.47c-0.44-0.88-1.41-1.23-2.26-0.81l-0.11,0.06c-0.84,0.43-1.16,1.44-0.73,2.31l12.83,25.43
			c0.3,0.6,0.89,0.97,1.53,0.97c0.26,0,0.52-0.06,0.76-0.18l0.12-0.06c0.39-0.2,0.68-0.53,0.81-0.94c0.14-0.43,0.1-0.91-0.13-1.35
			L624.92,759.47z"/>
		<path class="st0" d="M667.56,758.45c-0.56-0.14-1.1,0.02-1.42,0.21l-0.92,0.56l0.33,1.03c0.45,1.42,1.45,6.36-4.76,10.14
			c-3.12,1.9-6.4,2.43-9.47,1.54c-2.96-0.86-5.64-3.05-7.54-6.18c-3.96-6.51-2.5-13.61,3.53-17.28c4.74-2.88,8.69-1.82,10.79,0.12
			l0.53,0.49l0.71-0.16c0.51-0.12,0.97-0.5,1.18-1c0.23-0.53,0.18-1.12-0.13-1.63c-0.55-0.9-2.38-2.14-4.51-2.66
			c-3.36-0.82-6.83-0.16-10.32,1.96c-3.76,2.28-6.29,5.73-7.14,9.71c-0.85,3.96,0.01,8.31,2.41,12.26
			c3.18,5.23,8.04,8.23,13.33,8.23c2.84,0,5.66-0.83,8.36-2.48c4.81-2.92,6.14-6.57,6.49-8c0.69-2.83,0.14-5.23-0.38-6.08
			C668.39,758.83,668.01,758.56,667.56,758.45z"/>
		<path class="st0" d="M685.62,722.68c-4-0.62-8.1,0.51-11.56,3.19c-3.57,2.77-5.64,6.46-5.99,10.69c-0.33,4.02,1,8.17,3.74,11.7
			c3.36,4.33,7.86,6.72,12.67,6.72c3.32,0,6.58-1.17,9.43-3.38c7.19-5.58,8.12-14.76,2.25-22.33
			C693.33,725.64,689.6,723.3,685.62,722.68z M683.25,725.96c0.65,0,1.32,0.06,1.98,0.18c3.08,0.56,5.99,2.42,8.18,5.25
			c2.2,2.84,3.29,6.14,3.05,9.27c-0.25,3.25-1.84,6.1-4.63,8.26c-2.77,2.15-5.92,2.99-9.1,2.43h0c-3.08-0.54-5.99-2.4-8.19-5.23
			c-4.59-5.92-3.92-13.33,1.58-17.6C678.33,726.83,680.73,725.96,683.25,725.96z"/>
		<path class="st0" d="M671,726.84l0.58,0.33l0.62-0.24c0.72-0.28,1.12-0.66,2.48-6.11c0.6-2.29,0.76-2.91,0.17-3.67
			c-0.29-0.38-0.71-0.6-1.18-0.64c-0.41-0.02-0.8,0.09-1.12,0.34c-0.56,0.43-0.69,0.9-1.2,3.03
			C670.03,725.51,669.91,726.31,671,726.84z"/>
		<path class="st0" d="M725.75,719.35h-0.02c-0.46,0-0.88,0.17-1.23,0.51l-9.7,9.22l-18.46-19.42c-0.28-0.29-0.62-0.49-0.99-0.55
			c-0.51-0.09-1.02,0.06-1.41,0.43l-0.09,0.09c-0.33,0.31-0.51,0.73-0.53,1.17c-0.01,0.46,0.17,0.9,0.5,1.25l19.38,20.38
			c0.42,0.45,0.9,0.68,1.48,0.69c0.51,0,0.99-0.21,1.42-0.62l10.74-10.21c0.74-0.71,0.76-1.71,0.06-2.45
			C726.58,719.54,726.18,719.36,725.75,719.35z"/>
		<path class="st0" d="M741.33,682.5c-3.36-2.93-7.39-4.53-11.39-4.43c-4.19,0.09-7.98,1.94-10.94,5.34
			c-2.97,3.4-4.29,7.43-3.82,11.64c0.45,4,2.55,7.83,5.92,10.77c3.31,2.89,7.11,4.42,10.99,4.42c4.28,0,8.3-1.92,11.34-5.4
			C749.41,697.99,748.55,688.8,741.33,682.5z M730.18,681.54c3.08,0,6.23,1.27,8.87,3.58c2.71,2.36,4.41,5.39,4.78,8.51
			c0.39,3.23-0.63,6.34-2.95,9c-4.63,5.3-11.82,5.54-17.5,0.58c-2.71-2.36-4.41-5.4-4.78-8.55c-0.39-3.25,0.63-6.38,2.95-9.03
			c2.3-2.63,5.23-4.05,8.47-4.1L730.18,681.54z"/>
		<path class="st0" d="M774.74,660.36l-10.31-7.09c-1.01-0.69-2.14-0.5-2.83,0.49l-5.99,8.71c-0.29,0.43-0.41,0.91-0.32,1.37
			c0.05,0.3,0.22,0.72,0.71,1.06c0.37,0.25,0.79,0.34,1.24,0.27c0.46-0.08,0.87-0.36,1.16-0.78l5.21-7.58l0.04,0.03
			c4.49,3.18,5.35,8.96,2.07,13.74c-3.91,5.69-10.78,6.59-17.08,2.25c-6.17-4.25-7.87-11.38-4.04-16.95
			c3.02-4.39,6.97-5.06,9.45-4.31l0.56,0.17l0.51-0.29c0.47-0.26,0.77-0.78,0.8-1.37c0.03-0.62-0.27-1.22-0.81-1.59
			c-0.65-0.44-2.67-0.85-4.8-0.46c-2.31,0.43-5.66,1.81-8.5,5.93c-2.46,3.57-3.29,7.74-2.33,11.74c0.92,3.88,3.48,7.43,7.19,9.98
			c3.17,2.18,6.62,3.33,9.99,3.33c0,0,0,0,0,0c0.59,0,1.18-0.04,1.76-0.11c4.06-0.51,7.54-2.72,10.06-6.38
			c2.37-3.44,3.16-7.28,2.31-10.78l1.41,0.97c0.2,0.13,0.56,0.39,0.99,0.5c0.73,0.19,1.41-0.06,1.83-0.67
			C775.54,661.77,775.43,660.83,774.74,660.36z"/>
		<path class="st0" d="M792.27,628.41l-31.22-3.35c-0.84-0.1-1.54,0.28-1.96,1.05c-0.4,0.74-0.33,1.54,0.2,2.17l19.83,24.35
			l0.41,0.13c0.15,0.04,0.3,0.07,0.46,0.07c0.58,0,1.14-0.31,1.46-0.8c0.35-0.53,0.5-1.47-0.24-2.31l-6.79-8.35l5.84-10.76
			l10.76,1.18c1.11,0.05,1.79-0.57,2.03-1.18c0.28-0.7,0.1-1.47-0.45-1.93L792.27,628.41z M772.09,638.57l-7.93-9.7l12.46,1.36
			L772.09,638.57z"/>
		<path class="st0" d="M805.44,577.25c-0.44-0.16-0.91-0.14-1.33,0.06c-0.52,0.25-0.84,0.7-0.97,1.06l-0.36,1.02l0.9,0.59
			c1.25,0.82,5.13,4.04,2.66,10.88c-2.46,6.82-8.96,9.66-16.16,7.06c-7.17-2.59-10.5-9.03-8.1-15.67c1.88-5.21,5.61-6.88,8.48-6.68
			l0.73,0.05l0.45-0.57c0.32-0.41,0.43-1,0.28-1.53c-0.16-0.55-0.57-0.97-1.13-1.18c-0.97-0.35-3.23-0.15-5.18,0.76
			c-3.13,1.47-5.42,4.16-6.81,8c-1.5,4.17-1.28,8.49,0.63,12.16c1.86,3.57,5.22,6.39,9.47,7.92c2.17,0.78,4.32,1.18,6.4,1.18
			c6.5,0,11.76-3.86,14.09-10.31c1.91-5.3,0.66-8.97,0.04-10.3C808.3,579.1,806.37,577.59,805.44,577.25z"/>
		<path class="st0" d="M819.44,550.68c-0.43-0.11-0.87-0.05-1.23,0.17c-0.39,0.23-0.67,0.62-0.79,1.1l-3.3,12.97l-25.96-6.61
			c-0.48-0.13-0.96-0.07-1.35,0.16c-0.37,0.22-0.64,0.58-0.75,1.01l-0.03,0.13c-0.23,0.92,0.32,1.82,1.26,2.06l27.26,6.94
			c0.22,0.05,0.42,0.08,0.61,0.08c0.35,0,0.68-0.09,0.97-0.26c0.45-0.27,0.76-0.71,0.91-1.3l3.65-14.35c0.13-0.5,0.06-1-0.2-1.39
			C820.25,551.04,819.89,550.79,819.44,550.68z"/>
		<path class="st0" d="M786.21,530.33c2.76,5.07,3.14,5.48,4.02,5.48c0.15,0,0.27-0.03,0.36-0.05l0.64-0.13l0.31-0.6
			c0.35-0.69,0.41-1.24-2.21-6.22c-1.08-2.1-1.37-2.67-2.32-2.85c-0.43-0.08-0.88,0.01-1.24,0.26c-0.36,0.25-0.6,0.63-0.68,1.06
			c-0.13,0.69,0.08,1.12,1.07,2.98L786.21,530.33z"/>
		<path class="st0" d="M822.1,536.89l-27.99-5.18c-0.49-0.1-0.95-0.01-1.35,0.25c-0.36,0.24-0.6,0.62-0.67,1.04l-0.03,0.15
			c-0.17,0.93,0.45,1.79,1.4,1.97l27.99,5.18c0.12,0.02,0.24,0.04,0.36,0.04c0.36,0,0.69-0.1,0.97-0.3c0.37-0.25,0.62-0.64,0.7-1.07
			l0.03-0.15C823.67,537.9,823.06,537.07,822.1,536.89z"/>
		<path class="st0" d="M827.01,498.38l-28.29-2.92c-0.53-0.06-0.97,0.06-1.31,0.35c-0.33,0.27-0.54,0.67-0.58,1.1l-0.02,0.14
			c-0.1,0.93,0.57,1.71,1.56,1.82l23.56,2.43l-26.13,15.71c-0.33,0.2-1.12,0.67-1.22,1.66l-0.02,0.23c-0.1,1.03,0.62,1.89,1.67,2
			l28.2,2.91c0.07,0.01,0.15,0.01,0.21,0.01c0.89,0,1.59-0.62,1.68-1.47l0.01-0.13c0.1-0.97-0.55-1.75-1.55-1.86l-23.79-2.46
			l26.33-15.85c0.4-0.2,1.16-0.57,1.27-1.63l0.01-0.13C828.7,499.3,828.03,498.49,827.01,498.38z"/>
		<path class="st0" d="M827.53,481.66L799,480.99c-1.1,0-1.7,0.81-1.72,1.61l0,0.13c-0.02,0.94,0.72,1.7,1.7,1.73l28.52,0.67
			c0.46,0,0.89-0.17,1.21-0.47c0.32-0.31,0.51-0.73,0.52-1.17l0-0.15C829.24,482.41,828.51,481.69,827.53,481.66z"/>
		<path class="st0" d="M825.02,444.9L825.02,444.9c-2.11-1.9-4.53-2.64-5.53-2.54c-1.1,0.06-1.73,1.04-1.68,1.92l0.06,1.08l1.06,0.2
			c1.47,0.27,6.29,1.73,6.68,8.98c0.39,7.24-4.49,12.38-12.13,12.79c-3.66,0.19-7.01-0.8-9.45-2.8c-2.5-2.05-3.92-4.98-4.11-8.48
			c-0.3-5.54,2.5-8.51,5.21-9.46l0.68-0.24l0.19-0.69c0.14-0.5,0.02-1.09-0.33-1.52c-0.37-0.46-0.9-0.69-1.5-0.66
			c-1.03,0.05-3.03,1.11-4.48,2.72c-2.31,2.57-3.38,5.94-3.16,10.02c0.46,8.59,7.04,14.59,15.99,14.59c0.37,0,0.75-0.01,1.12-0.03
			c4.6-0.25,8.5-1.89,11.29-4.75c2.89-2.98,4.29-7,4.04-11.64C828.69,448.78,826.11,445.88,825.02,444.9z"/>
		<path class="st0" d="M794.88,426.48l30.55,7.26l0.39-0.15c0.68-0.25,1.14-0.99,1.08-1.75c-0.05-0.64-0.5-1.46-1.59-1.69
			l-10.47-2.5l-1.91-12.09l9.24-5.6c0.94-0.64,1.08-1.54,0.9-2.18c-0.2-0.72-0.82-1.23-1.53-1.26l-0.42-0.02l-26.81,16.33
			c-0.73,0.44-1.06,1.16-0.92,2.03C793.52,425.71,794.06,426.3,794.88,426.48z M799.09,423.98l10.71-6.5l1.48,9.37L799.09,423.98z"
			/>
	</g>
	<g>
		<g>
			<g>
				<g>
					<path class="st1" d="M277.72,347.11c0.66,0,8.91,0,8.91,0c24.09,0.65,32.66,13.04,37.94,11.08c5.28-2.28,8.25-10.43,8.25-10.43
						h3.63v67.47h-3.63c-1.98-60.63-45.53-61.93-45.53-61.93c-4.29,0-5.28,0-9.9,0c-15.84,0-28.71,13.04-28.71,28.68l0.33,149.28
						c0,15.65,12.87,28.36,28.71,28.36c3.63,0,5.61,0.33,8.91,0.33c26.4,0,45.53-19.23,45.53-45.31v-8.15h6.93v8.15
						c0,28.68-20.13,51.83-52.46,51.83c-3.96,0-5.61-0.33-9.57-0.33c-34.31,0-58.4-24.77-58.4-55.09V402.2
						C218.66,371.88,244.4,347.11,277.72,347.11z"/>
				</g>
			</g>
			<g>
				<g>
					<path class="st1" d="M435.55,262.89h16.44c42.94,0,78.11,34.74,78.11,77.16v149.35c0,35.65-24.67,65.43-58.01,74.45
						c2.74,11.73,5.94,21.21,10.51,24.82c12.33,9.48,28.32-14.44,28.32-14.44c-2.74,22.56-19.18,30.23-35.63,28.88
						c-14.62-1.35-31.97-9.02-37-36.55h-2.74c-42.48,0-77.65-34.74-77.65-77.16V340.05C357.9,297.64,393.07,262.89,435.55,262.89z
						 M469.81,553.03c11.88-7.22,19.64-19.85,19.64-34.29V310.72c0-22.11-18.73-40.61-41.11-40.61h-8.68
						c-22.84,0-41.11,18.5-41.11,40.61v205.3c6.85-25.72,35.17-21.66,52.98-5.42C461.13,519.64,466.15,536.78,469.81,553.03z
						 M400.83,531.82c5.03,15.34,19.64,26.62,36.54,27.53c-2.28-13.54-4.11-59.56-23.3-52.79
						C400.83,511.06,400.38,526.86,400.83,531.82z"/>
				</g>
			</g>
			<g>
				<g>
					<path class="st1" d="M549.08,565.23c-7.92,0-15.84,0-24.09,0c0,0,9.24-6.52,12.87-18.58l60.71-200.78h3.96L662.25,546
						c4.62,15.32,12.54,19.23,12.54,19.23c-16.83,0-33.66,0-50.48,0c0,0,7.92-2.28,1.98-21.84l-10.23-35.2h-58.73
						C554.35,518.29,536.21,561.97,549.08,565.23z M613.75,501.02l-26.73-90.61l-27.39,90.61H613.75z"/>
				</g>
			</g>
		</g>
	</g>
</g>
</svg>
